<svg width="21" height="18" viewBox="0 0 21 18" fill="none" xmlns="http://www.w3.org/2000/svg">
<path d="M19.5488 17.45L13.7988 11.7C13.2655 12.1333 12.6738 12.4583 12.0238 12.675C11.3738 12.8917 10.6988 13 9.99883 13C9.29883 13 8.63216 12.8958 7.99883 12.6875C7.36549 12.4792 6.78216 12.1833 6.24883 11.8L7.69883 10.35C8.03216 10.55 8.39049 10.7083 8.77383 10.825C9.15716 10.9417 9.56549 11 9.99883 11C11.2488 11 12.3113 10.5625 13.1863 9.6875C14.0613 8.8125 14.4988 7.75 14.4988 6.5C14.4988 5.25 14.0613 4.1875 13.1863 3.3125C12.3113 2.4375 11.2488 2 9.99883 2C8.84883 2 7.85299 2.3875 7.01133 3.1625C6.16966 3.9375 5.68216 4.9 5.54883 6.05L6.79883 4.8L8.19883 6.2L4.49883 9.9L0.798828 6.2L2.19883 4.8L3.54883 6.1C3.64883 4.38333 4.31549 2.9375 5.54883 1.7625C6.78216 0.5875 8.26549 0 9.99883 0C11.8155 0 13.353 0.629167 14.6113 1.8875C15.8697 3.14583 16.4988 4.68333 16.4988 6.5C16.4988 7.2 16.3905 7.88333 16.1738 8.55C15.9572 9.21667 15.6322 9.8 15.1988 10.3L20.9488 16.05L19.5488 17.45Z" fill="#7E7E7E"/>
</svg>
