<svg width="20" height="22" viewBox="0 0 20 22" fill="none" xmlns="http://www.w3.org/2000/svg">
<path d="M12.74 7.99997L12.394 17M7.606 17L7.26 7.99997M17.228 4.78997C17.57 4.84197 17.91 4.89697 18.25 4.95597M17.228 4.78997L16.16 18.673C16.1164 19.2382 15.8611 19.7661 15.445 20.1512C15.029 20.5363 14.4829 20.7501 13.916 20.75H6.084C5.5171 20.7501 4.97102 20.5363 4.55498 20.1512C4.13894 19.7661 3.88359 19.2382 3.84 18.673L2.772 4.78997M17.228 4.78997C16.0739 4.61549 14.9138 4.48307 13.75 4.39297M2.772 4.78997C2.43 4.84097 2.09 4.89597 1.75 4.95497M2.772 4.78997C3.92613 4.61549 5.08623 4.48307 6.25 4.39297M13.75 4.39297V3.47697C13.75 2.29697 12.84 1.31297 11.66 1.27597C10.5536 1.24061 9.44638 1.24061 8.34 1.27597C7.16 1.31297 6.25 2.29797 6.25 3.47697V4.39297M13.75 4.39297C11.2537 4.20005 8.74628 4.20005 6.25 4.39297" stroke="#C10700" stroke-width="1.6" stroke-linecap="round" stroke-linejoin="round"/>
</svg>
